<?xml version="1.0" standalone="no"?>
<!DOCTYPE svg PUBLIC "-//W3C//DTD SVG 20010904//EN"
 "http://www.w3.org/TR/2001/REC-SVG-20010904/DTD/svg10.dtd">
<svg version="1.0" xmlns="http://www.w3.org/2000/svg"
 width="512.000000pt" height="512.000000pt" viewBox="0 0 512.000000 512.000000"
 preserveAspectRatio="xMidYMid meet">
<metadata>
Created by potrace 1.11, written by Peter Selinger 2001-2013
</metadata>
<g transform="translate(0.000000,512.000000) scale(0.100000,-0.100000)"
fill="#000000" stroke="none">
<path d="M3277 4729 c-385 -58 -635 -425 -542 -794 10 -38 24 -83 32 -98 l14
-28 -270 -271 c-296 -296 -307 -311 -278 -380 23 -55 64 -75 141 -69 11 0 139
120 288 268 147 147 268 262 268 257 0 -6 24 -27 53 -46 161 -107 298 -139
485 -115 119 16 282 105 367 200 291 326 197 818 -194 1017 -100 50 -255 75
-364 59z m256 -268 c84 -40 157 -113 199 -199 31 -62 33 -73 33 -172 0 -97 -2
-110 -31 -171 -41 -87 -116 -161 -202 -202 -62 -30 -75 -32 -172 -32 -97 0
-110 2 -172 32 -84 40 -161 117 -202 203 -29 60 -31 73 -31 170 1 97 3 110 33
172 34 71 102 145 167 184 108 63 264 69 378 15z"/>
<path d="M1745 3204 c-262 -53 -436 -198 -519 -434 -26 -72 -30 -101 -32 -195
-1 -91 2 -124 22 -189 13 -44 24 -83 24 -87 0 -3 -15 -12 -32 -20 -18 -7 -75
-32 -125 -56 -51 -24 -97 -43 -103 -43 -5 0 -10 -4 -10 -10 0 -5 -4 -10 -9
-10 -5 0 -22 -5 -38 -12 -15 -6 -30 -12 -33 -13 -18 -4 -96 -50 -102 -59 -14
-21 -8 -61 11 -73 10 -6 38 -14 62 -18 79 -11 273 -46 277 -49 2 -2 5 -26 8
-52 2 -27 6 -58 9 -69 2 -11 7 -49 10 -85 9 -95 22 -129 52 -136 14 -4 33 -3
42 3 8 5 53 86 99 179 116 234 116 235 123 240 4 2 26 -7 50 -20 146 -81 375
-100 513 -42 l33 14 274 -274 c189 -189 283 -277 304 -283 96 -25 182 71 138
155 -10 19 -129 146 -265 282 l-247 247 37 42 c53 60 100 140 130 225 23 65
26 88 26 203 0 148 -16 208 -84 325 -32 55 -117 151 -174 198 -27 22 -149 79
-206 97 -51 16 -220 28 -265 19z m203 -245 c112 -36 210 -117 255 -211 137
-287 -74 -609 -390 -593 -71 3 -160 32 -202 64 l-25 19 37 76 c44 91 45 110
12 132 -28 18 -26 18 -138 -30 l-38 -17 -14 35 c-20 47 -25 159 -10 221 37
154 151 269 308 309 59 15 151 13 205 -5z"/>
<path d="M3296 1683 c-1 -1 -17 -5 -36 -8 -213 -36 -385 -165 -480 -360 -176
-363 25 -795 420 -901 103 -28 255 -23 355 10 268 91 441 321 450 600 7 234
-132 470 -342 584 -37 20 -154 65 -161 61 -1 0 -21 3 -45 7 -38 6 -156 12
-161 7z m185 -252 c112 -35 196 -108 252 -220 27 -56 32 -76 34 -157 2 -65 -3
-107 -14 -141 -67 -199 -266 -314 -478 -277 -97 17 -230 117 -276 207 -119
232 -6 511 236 586 82 25 167 26 246 2z"/>
</g>
</svg>
